<svg aria-hidden="true" style="position: absolute; width: 0; height: 0; overflow: hidden;" version="1.1" xmlns="http://www.w3.org/2000/svg" xmlns:xlink="http://www.w3.org/1999/xlink">
<defs>
<symbol id="location" viewBox="0 0 32 32">
<path d="M16 0c-7.146 0-12.959 5.813-12.959 12.959 0 2.949 0.966 5.725 2.794 8.030 2.367 2.984 9.25 10.071 9.542 10.371l0.622 0.64 0.622-0.64c0.292-0.3 7.177-7.388 9.545-10.373 1.826-2.303 2.792-5.079 2.792-8.028 0-7.146-5.813-12.959-12.959-12.959zM24.807 19.908c-1.906 2.403-7.024 7.749-8.807 9.598-1.783-1.849-6.899-7.194-8.804-9.596-1.582-1.995-2.418-4.399-2.418-6.951 0-6.188 5.035-11.223 11.223-11.223s11.223 5.035 11.223 11.223c0 2.553-0.835 4.956-2.416 6.949z"></path>
<path d="M16 5.144c-4.23 0-7.671 3.441-7.671 7.671s3.441 7.671 7.671 7.671 7.671-3.441 7.671-7.671-3.441-7.671-7.671-7.671zM16 18.75c-3.273 0-5.935-2.662-5.935-5.935s2.662-5.935 5.935-5.935 5.935 2.662 5.935 5.935c0 3.273-2.662 5.935-5.935 5.935z"></path>
</symbol>
</defs>
</svg>
